<?xml version="1.0" standalone="no"?>
<!DOCTYPE svg PUBLIC "-//W3C//DTD SVG 20010904//EN"
 "http://www.w3.org/TR/2001/REC-SVG-20010904/DTD/svg10.dtd">
<svg version="1.0" xmlns="http://www.w3.org/2000/svg"
 width="512.000000pt" height="512.000000pt" viewBox="0 0 512.000000 512.000000"
 preserveAspectRatio="xMidYMid meet">

<g transform="translate(0.000000,512.000000) scale(0.100000,-0.100000)"
fill="#000000" stroke="none">
<path d="M1803 5105 c-35 -15 -516 -420 -545 -459 -30 -39 -42 -105 -29 -154
12 -43 150 -216 219 -274 63 -53 175 -71 267 -43 17 5 68 -50 308 -329 l287
-336 -30 -47 c-95 -150 -104 -327 -24 -484 l26 -52 -25 -24 -24 -25 -84 65
c-247 190 -468 297 -614 297 -211 0 -533 -199 -976 -602 l-84 -76 -145 -4
c-159 -4 -184 -11 -248 -72 -65 -60 -76 -95 -80 -248 -4 -153 5 -200 54 -263
34 -45 98 -83 155 -93 l44 -8 5 -849 5 -850 28 -47 c15 -26 42 -59 60 -72 78
-60 -71 -56 2207 -56 2278 0 2129 -4 2207 56 18 13 45 46 60 72 l28 47 5 849
5 849 51 12 c95 21 160 79 191 170 11 34 14 78 11 183 -4 159 -16 192 -93 260
-54 47 -104 62 -211 62 l-76 0 -217 218 c-348 351 -656 601 -871 707 -42 21
-73 49 -135 123 -144 171 -221 247 -283 280 -128 69 -271 78 -412 27 l-74 -28
-37 42 c-21 23 -150 174 -288 335 l-251 294 21 48 c28 62 29 154 2 215 -30 68
-197 257 -247 280 -49 22 -99 24 -143 4z m156 -252 c71 -85 81 -102 81 -136 0
-21 -5 -47 -10 -58 -13 -24 -341 -305 -374 -320 -54 -25 -90 -5 -180 99 l-85
97 22 22 c33 34 451 392 458 392 3 1 43 -43 88 -96z m386 -761 c223 -260 266
-316 254 -326 -74 -66 -158 -136 -162 -136 -4 0 -361 413 -544 631 l-23 27 88
75 c81 70 88 74 103 59 9 -10 137 -158 284 -330z m789 -346 c36 -17 77 -51
116 -94 l61 -66 -64 -12 c-180 -34 -415 -172 -709 -418 -70 -58 -129 -106
-131 -106 -2 0 -12 25 -22 56 -34 107 -3 235 76 313 43 44 338 294 371 315 81
53 208 58 302 12z m309 -355 c142 -49 338 -176 552 -356 127 -107 356 -322
440 -412 l57 -63 -1168 0 -1169 0 95 96 c219 221 514 475 684 587 237 158 369
196 509 148z m-1766 -355 c89 -37 215 -114 333 -201 l101 -76 -93 -99 -93
-100 -599 0 -598 0 48 44 c238 213 494 386 659 447 68 26 161 20 242 -15z
m3244 -675 c28 -29 29 -32 29 -136 0 -106 -8 -138 -39 -162 -23 -18 -4679 -18
-4702 0 -31 24 -39 56 -39 162 0 104 1 107 29 136 l29 29 2332 0 2332 0 29
-29z m-231 -1305 c0 -453 -3 -832 -6 -841 -18 -47 77 -45 -2124 -45 -2201 0
-2106 -2 -2124 45 -3 9 -6 388 -6 841 l0 824 2130 0 2130 0 0 -824z"/>
<path d="M3290 3147 c-53 -27 -62 -96 -18 -137 32 -29 169 -29 198 0 43 43 34
110 -20 137 -32 16 -128 16 -160 0z"/>
<path d="M2845 2875 c-30 -30 -33 -83 -6 -116 14 -18 31 -23 79 -27 34 -2 73
-2 86 2 65 16 88 95 41 141 -21 22 -33 25 -100 25 -67 0 -79 -3 -100 -25z"/>
<path d="M3614 2876 c-38 -32 -38 -90 1 -123 22 -19 38 -23 96 -23 65 0 73 2
100 29 31 31 36 59 17 94 -20 38 -40 46 -115 47 -61 0 -76 -3 -99 -24z"/>
<path d="M1395 2875 c-30 -30 -33 -83 -6 -116 14 -18 31 -23 79 -27 34 -2 73
-2 86 2 65 16 88 95 41 141 -21 22 -33 25 -100 25 -67 0 -79 -3 -100 -25z"/>
<path d="M2595 1517 c-25 -21 -33 -51 -116 -467 -49 -244 -89 -453 -89 -463 0
-28 54 -77 85 -77 16 0 38 11 54 27 25 26 33 59 114 463 48 239 87 445 87 458
0 31 -52 82 -84 82 -14 0 -37 -10 -51 -23z"/>
<path d="M2000 1433 c-50 -35 -426 -336 -442 -355 -23 -26 -23 -80 0 -106 9
-12 116 -100 237 -197 242 -192 260 -201 310 -150 28 27 34 80 13 107 -7 8
-91 77 -186 153 -139 111 -171 140 -160 150 7 7 83 67 168 135 85 67 163 131
173 142 25 30 22 84 -8 113 -28 29 -70 32 -105 8z"/>
<path d="M3015 1425 c-30 -29 -33 -83 -7 -113 9 -11 87 -75 172 -142 85 -68
161 -128 168 -135 11 -10 -21 -39 -160 -150 -95 -76 -179 -145 -185 -153 -22
-27 -16 -80 12 -107 50 -51 68 -42 310 150 121 97 228 185 238 197 9 11 17 35
17 53 0 18 -8 42 -17 53 -17 19 -393 320 -443 355 -35 24 -77 21 -105 -8z"/>
</g>
</svg>
